<svg version="1.1" id="Uploaded to svgrepo.com" xmlns="http://www.w3.org/2000/svg" xmlns:xlink="http://www.w3.org/1999/xlink" x="0px" y="0px"
	 width="32px" height="32px" viewBox="0 0 32 32" style="enable-background:new 0 0 32 32;" xml:space="preserve">
<style type="text/css">
	.stone_een{fill:#0B1719;}
</style>
<path class="stone_een" d="M10.127,9H23c1.105,0,2-0.895,2-2V4c0-1.105-0.895-2-2-2h-5V1c0-0.552-0.448-1-1-1h-2
	c-0.552,0-1,0.448-1,1v1h-3.873C9.401,2,8.699,2.264,8.152,2.742L5.86,4.747c-0.455,0.398-0.455,1.107,0,1.505l2.292,2.005
	C8.699,8.736,9.401,9,10.127,9z M12.5,5h7C19.776,5,20,5.224,20,5.5S19.776,6,19.5,6h-7C12.224,6,12,5.776,12,5.5S12.224,5,12.5,5z
	 M26.14,12.747l-2.292-2.005C23.301,10.264,22.599,10,21.873,10H9c-1.105,0-2,0.895-2,2v3c0,1.105,0.895,2,2,2h5v14
	c0,0.552,0.448,1,1,1h2c0.552,0,1-0.448,1-1V17h3.873c0.727,0,1.429-0.264,1.976-0.742l2.292-2.005
	C26.595,13.854,26.595,13.146,26.14,12.747z M19.5,14h-7c-0.276,0-0.5-0.224-0.5-0.5s0.224-0.5,0.5-0.5h7c0.276,0,0.5,0.224,0.5,0.5
	S19.776,14,19.5,14z"/>
</svg>