<svg xmlns="http://www.w3.org/2000/svg" width="64" height="64"><path d="M16.667 18.333c-3.682 0-6.667 3-6.667 6.667v50c0 3.667 2.985 6.667 6.667 6.667h66.666c3.684 0 6.667-3 6.667-6.667V51.667c-.053 3.355-.25 6.711-.625 10-.867 4.333-.89 10.042-5.312 12.708-6.56 2.667-13.932 3.313-21.042 3.646-11.497.333-23.03.604-34.48-.73-4.505-.666-9.593-.666-13.333-3.332-4.09-4.334-3.604-10.313-4.687-15.313-.709-9.667-.89-19.312 1.146-28.646.671-3.667 2.14-7.958 6.666-8.958 7.84-2 15.942-2.584 24.063-2.709H16.667zm40.625 0c6.791.078 13.555.417 20.208 1.667 3.53.667 7.702 1.354 9.375 4.688 1.733 4 2.33 8.27 2.812 12.604.15 3.624.292 7.342.313 11.041V25c0-3.667-2.983-6.667-6.667-6.667H57.291zM39.375 25c-5.788.094-11.6.48-17.188 1.98-3.226.666-4.208 4.312-4.687 6.978-1.451 7.334-1.338 15.063-.833 22.396.771 4 .418 8.646 3.333 11.98 2.666 2 6.268 2.041 9.48 2.708 8.16 1 16.39.646 24.583.312 5.07 0 10.323-.708 15-2.708 3.153-2.333 3.237-6.667 3.854-10 .65-6.333.445-12.625.208-18.959-.343-3.333-.847-6.687-2.083-9.687-1.194-2.667-4.154-2.98-6.667-3.646C58.052 25.021 51.545 25 45.105 25c-1.921 0-3.8-.03-5.73 0zm37.292 3.333v3.334h10v-3.334h-10zm0 6.667v3.334h10V35h-10zm-40 3.334 16.666 10-16.666 10v-20zm40 3.333V45h10v-3.333h-10zm5 6.666c-2.76 0-5 2.24-5 5s2.24 5 5 5 5-2.24 5-5-2.24-5-5-5zm0 3.334A1.667 1.667 0 1 1 81.665 55a1.667 1.667 0 0 1 .002-3.334zm0 10c-2.76 0-5 2.24-5 5s2.24 5 5 5 5-2.24 5-5-2.24-5-5-5zm0 3.333a1.667 1.667 0 1 1-.002 3.335A1.667 1.667 0 0 1 81.667 65z"/></svg>